<svg xmlns="http://www.w3.org/2000/svg" width="16" height="16" viewBox="0 0 16 16"><defs><style>.a{fill:#7d7d7d;}</style></defs><g transform="translate(-1 -1)"><path class="a" d="M16.247,15.548l-2.3-2.325a.1.1,0,0,0-.091-.037.128.128,0,0,0-.091.043l-1.536,1.627a1.067,1.067,0,0,1-.773.336h0a1.067,1.067,0,0,1-.773-.336l-3.3-3.515a.128.128,0,0,0-.171,0l-5.131,4-.661-.859,5.109-4a1.189,1.189,0,0,1,1.6.128l3.291,3.515L12.945,12.5a1.184,1.184,0,0,1,.853-.379,1.163,1.163,0,0,1,.864.352l2.3,2.325Z" transform="translate(-0.196 -4.308)"/><path class="a" d="M14.909,17H3.091A2.091,2.091,0,0,1,1,14.909V3.091A2.091,2.091,0,0,1,3.091,1H14.909A2.091,2.091,0,0,1,17,3.091V14.909A2.091,2.091,0,0,1,14.909,17ZM3.091,2.067A1.024,1.024,0,0,0,2.067,3.091V14.909a1.024,1.024,0,0,0,1.024,1.024H14.909a1.024,1.024,0,0,0,1.024-1.024V3.091a1.024,1.024,0,0,0-1.024-1.024Z" transform="translate(0 0)"/><circle class="a" cx="1.067" cy="1.067" r="1.067" transform="translate(10.243 4.643)"/><path class="a" d="M2,15.823l5.083-4.091.939-.112L11.1,14.905s.533.731.987.229l1.531-1.627s.3-.667.955,0,2.363,2.848,2.363,2.848L16.9,20.212a1.551,1.551,0,0,1-1.728,1.211c-1.568,0-11.733-.165-11.733-.165S2,21.609,2,19.865Z" transform="translate(-0.467 -4.956)"/></g></svg>